<svg width="32" height="29" viewBox="0 0 32 29" fill="none" xmlns="http://www.w3.org/2000/svg">
<g opacity="0.05">
<mask id="path-1-inside-1_49_1038" fill="white">
<path fill-rule="evenodd" clip-rule="evenodd" d="M15.999 27.6029C8.56304 27.6029 2.53516 21.575 2.53516 14.1391C2.53516 6.70307 8.56304 0.674805 15.999 0.674805C23.4354 0.674805 29.4633 6.70307 29.4633 14.1391C29.4633 21.575 23.4354 27.6029 15.999 27.6029Z"/>
</mask>
<path fill-rule="evenodd" clip-rule="evenodd" d="M15.999 27.6029C8.56304 27.6029 2.53516 21.575 2.53516 14.1391C2.53516 6.70307 8.56304 0.674805 15.999 0.674805C23.4354 0.674805 29.4633 6.70307 29.4633 14.1391C29.4633 21.575 23.4354 27.6029 15.999 27.6029Z" stroke="black" stroke-width="2.4" mask="url(#path-1-inside-1_49_1038)"/>
<path fill-rule="evenodd" clip-rule="evenodd" d="M12.6992 11.4956C12.6992 10.8409 13.2296 10.3105 13.8843 10.3105C14.5389 10.3105 15.0693 10.8409 15.0693 11.4956C15.0693 12.1503 14.5389 12.6807 13.8843 12.6807C13.2296 12.6807 12.6992 12.1503 12.6992 11.4956Z" fill="black"/>
<path fill-rule="evenodd" clip-rule="evenodd" d="M18.5239 12.6807C17.8693 12.6807 17.3389 12.1503 17.3389 11.4956C17.3389 10.8409 17.8693 10.3105 18.5239 10.3105C19.1786 10.3105 19.709 10.8409 19.709 11.4956C19.709 12.1503 19.1786 12.6807 18.5239 12.6807Z" fill="black"/>
<path d="M19.3845 14.5605C19.3845 16.3686 17.9189 17.8341 16.1109 17.8341C14.3028 17.8341 12.8369 16.3686 12.8369 14.5605" stroke="black" stroke-width="1.2"/>
<path fill-rule="evenodd" clip-rule="evenodd" d="M15.9996 28.1952C8.23363 28.1952 1.94323 21.9048 1.94323 14.1387C1.94323 11.6707 2.58008 9.34953 3.69897 7.33396C2.30957 10.358 6.33509 15.7315 12.8965 19.5176C19.522 23.34 26.2554 24.1183 28.0918 21.3043C25.6497 25.4324 21.1455 28.1952 15.9996 28.1952Z" fill="black"/>
<mask id="path-6-outside-2_49_1038" maskUnits="userSpaceOnUse" x="-0.810547" y="1.47266" width="33" height="25" fill="black">
<rect fill="white" x="-0.810547" y="1.47266" width="33" height="25"/>
<path fill-rule="evenodd" clip-rule="evenodd" d="M1.71826 5.89489C-0.440078 9.6325 4.20385 16.3551 12.0911 20.9087C19.9796 25.4622 28.1229 26.1246 30.2813 22.3857C32.4391 18.648 27.794 11.9254 19.9067 7.37188C12.0197 2.81835 3.87536 2.15726 1.71826 5.89489Z"/>
</mask>
<path fill-rule="evenodd" clip-rule="evenodd" d="M1.71826 5.89489C-0.440078 9.6325 4.20385 16.3551 12.0911 20.9087C19.9796 25.4622 28.1229 26.1246 30.2813 22.3857C32.4391 18.648 27.794 11.9254 19.9067 7.37188C12.0197 2.81835 3.87536 2.15726 1.71826 5.89489Z" fill="white"/>
<path fill-rule="evenodd" clip-rule="evenodd" d="M1.71826 5.89489C-0.440078 9.6325 4.20385 16.3551 12.0911 20.9087C19.9796 25.4622 28.1229 26.1246 30.2813 22.3857C32.4391 18.648 27.794 11.9254 19.9067 7.37188C12.0197 2.81835 3.87536 2.15726 1.71826 5.89489Z" stroke="black" stroke-width="2.26792" stroke-linejoin="round" mask="url(#path-6-outside-2_49_1038)"/>
<path fill-rule="evenodd" clip-rule="evenodd" d="M28.2709 20.9984C28.2144 21.0994 28.1535 21.2071 28.0918 21.3041C26.2554 24.1181 19.5219 23.3398 12.8964 19.5174C6.33483 15.7313 2.30933 10.3578 3.6986 7.33376C3.78651 7.18162 3.87242 7.02947 3.95874 6.88139C6.42274 2.82603 10.906 0.0820312 15.9994 0.0820312C23.7616 0.0820312 30.0562 6.37778 30.0562 14.1385C30.0562 16.632 29.4097 18.9734 28.2709 20.9984Z" fill="black"/>
<path fill-rule="evenodd" clip-rule="evenodd" d="M3.9585 6.88087C3.87195 7.02896 3.78589 7.18114 3.69836 7.33325C3.73474 7.25786 3.77502 7.18114 3.81555 7.10437C3.86121 7.02896 3.90698 6.95222 3.9585 6.88087Z" fill="white"/>
<path fill-rule="evenodd" clip-rule="evenodd" d="M28.1781 21.1727C28.1537 21.2184 28.1227 21.2642 28.0918 21.3046C28.1537 21.2077 28.2089 21.1107 28.2654 21.0098C28.2397 21.065 28.2089 21.1161 28.1781 21.1727Z" fill="white"/>
<path fill-rule="evenodd" clip-rule="evenodd" d="M14.8597 7.29297C16.5567 7.29297 17.9324 9.09526 17.9324 11.3185C17.9324 13.5417 16.5567 15.344 14.8597 15.344C13.1628 15.344 11.7871 13.5417 11.7871 11.3185C11.7871 9.09526 13.1628 7.29297 14.8597 7.29297Z" fill="white"/>
<path fill-rule="evenodd" clip-rule="evenodd" d="M15.8713 8.42578C16.6195 8.42578 17.226 9.32087 17.226 10.425C17.226 11.5292 16.6195 12.4242 15.8713 12.4242C15.1231 12.4242 14.5166 11.5292 14.5166 10.425C14.5166 9.32087 15.1231 8.42578 15.8713 8.42578Z" fill="black"/>
<path fill-rule="evenodd" clip-rule="evenodd" d="M20.8178 7.26367C22.5147 7.26367 23.8904 9.06597 23.8904 11.2892C23.8904 13.5124 22.5147 15.3147 20.8178 15.3147C19.1208 15.3147 17.7451 13.5124 17.7451 11.2892C17.7451 9.06597 19.1208 7.26367 20.8178 7.26367Z" fill="white"/>
<path fill-rule="evenodd" clip-rule="evenodd" d="M21.8293 8.39355C22.5775 8.39355 23.184 9.28864 23.184 10.3928C23.184 11.4969 22.5775 12.392 21.8293 12.392C21.0811 12.392 20.4746 11.4969 20.4746 10.3928C20.4746 9.28864 21.0811 8.39355 21.8293 8.39355Z" fill="black"/>
</g>
</svg>
