<?xml version="1.0" encoding="UTF-8"?><svg id="a" xmlns="http://www.w3.org/2000/svg" viewBox="0 0 45.92 45.92"><defs><style>.b{fill:#67a1ff;}.c{fill:#fff;}.d{fill:#a7c8ff;}</style></defs><circle class="d" cx="22.96" cy="22.96" r="19.88"/><g><path class="c" d="M23.11,18.22c0,2.38-1.34,4.3-2.98,4.29-1.64,0-2.96-1.93-2.95-4.31,0-2.38,1.34-4.3,2.98-4.29s2.96,1.93,2.95,4.31Z"/><path d="M22.62,17.01c0,1.06-.59,1.93-1.31,1.92-.72,0-1.3-.87-1.3-1.93s.59-1.93,1.31-1.92c.72,0,1.3,.87,1.3,1.93Z"/><path class="c" d="M28.68,18.15c0,2.38-1.34,4.3-2.98,4.29-1.64,0-2.96-1.93-2.95-4.31,0-2.38,1.34-4.3,2.98-4.29,1.64,0,2.96,1.93,2.95,4.31Z"/><path d="M28.27,17.17c0,1.06-.59,1.93-1.31,1.92-.72,0-1.3-.87-1.3-1.93,0-1.06,.59-1.93,1.31-1.92,.72,0,1.3,.87,1.3,1.93Z"/><path d="M24.45,20.67c.15,.73-.31,1.44-1.04,1.6-.73,.15-1.44-.31-1.6-1.04s.31-1.44,1.04-1.6c.73-.15,1.44,.32,1.6,1.04Z"/></g><path d="M25.32,25.04c0,.84-.92,1.53-2.06,1.53s-2.06-.68-2.06-1.53,.92-1.53,2.06-1.53,2.06,.68,2.06,1.53Z"/><g><path class="b" d="M34.3,22.87c0,1.48-1.2,2.68-2.68,2.68s-2.68-1.2-2.68-2.68,1.2-2.68,2.68-2.68,2.68,1.2,2.68,2.68Z"/><circle class="b" cx="14.3" cy="22.87" r="2.68"/></g></svg>