<?xml version="1.0" encoding="UTF-8"?><svg id="a" xmlns="http://www.w3.org/2000/svg" viewBox="0 0 45.92 45.92"><defs><style>.b{fill:#00f58d;}.c{fill:#fff;}.d{fill:#23c981;}</style></defs><path class="b" d="M37.57,23.02l1.7-1.68c5.09-5.05,5.96-12.42,1.94-16.47-4.02-4.05-11.4-3.24-16.49,1.81l-1.69,1.68h0l-1.68-1.7C16.29,1.57,8.92,.7,4.86,4.72,.81,8.74,1.62,16.12,6.67,21.21l1.68,1.69h0l-1.7,1.68c-5.09,5.05-5.96,12.42-1.94,16.47,4.02,4.05,11.4,3.24,16.49-1.81l1.69-1.68h0l1.68,1.7c5.05,5.09,12.42,5.96,16.47,1.94,4.05-4.02,3.24-11.4-1.81-16.49l-1.68-1.69Z"/><g><path class="d" d="M36.47,23.71c0,1.53-1.25,2.76-2.78,2.76-1.53,0-2.76-1.25-2.76-2.78,0-1.53,1.25-2.76,2.78-2.76,1.53,0,2.76,1.25,2.76,2.78Z"/><path class="d" d="M16.01,24.24c0,1.53-1.25,2.76-2.78,2.76s-2.76-1.25-2.76-2.78c0-1.53,1.25-2.76,2.78-2.76,1.53,0,2.76,1.25,2.76,2.78Z"/><g><path class="c" d="M22.84,22.06c0,2.23-1.26,4.04-2.8,4.03-1.54,0-2.78-1.82-2.77-4.06s1.26-4.04,2.8-4.03c1.54,0,2.78,1.82,2.77,4.06Z"/><path d="M22.21,20.85c0,1-.56,1.81-1.24,1.81-.68,0-1.23-.82-1.22-1.82,0-1,.56-1.81,1.24-1.81,.68,0,1.23,.82,1.22,1.82Z"/><path class="c" d="M28.66,21.65c0,2.23-1.26,4.04-2.8,4.03-1.54,0-2.78-1.82-2.77-4.06s1.26-4.04,2.8-4.03c1.54,0,2.78,1.82,2.77,4.06Z"/><path d="M28.02,20.44c0,1-.56,1.81-1.24,1.81-.68,0-1.23-.82-1.22-1.82,0-1,.56-1.81,1.24-1.81,.68,0,1.23,.82,1.22,1.82Z"/><path d="M24.32,24.46c0,.75-.61,1.35-1.36,1.34-.75,0-1.35-.61-1.34-1.36,0-.75,.61-1.35,1.36-1.34,.75,0,1.35,.61,1.34,1.36Z"/></g></g><path d="M26.68,28.49h-7.49c-.41,0-.75-.34-.75-.75s.34-.75,.75-.75h7.49c.41,0,.75,.34,.75,.75s-.34,.75-.75,.75Z"/></svg>