<?xml version="1.0" encoding="UTF-8"?><svg id="a" xmlns="http://www.w3.org/2000/svg" viewBox="0 0 45.92 45.92"><defs><style>.b{fill:#69baff;}.c{fill:#fff;}.d{fill:#419cf7;}.e{fill:#74dfff;}</style></defs><path class="b" d="M45.3,22.96c0,5.17-8.25,7.31-11.64,10.7s-5.53,11.64-10.7,11.64-7.31-8.25-10.7-11.64C8.87,30.27,.62,28.13,.62,22.96s8.25-7.31,11.64-10.7C15.65,8.87,17.78,.62,22.96,.62s7.31,8.25,10.7,11.64c3.39,3.39,11.64,5.53,11.64,10.7Z"/><path class="d" d="M38.86,22.34c0,1.48-1.2,2.68-2.68,2.68s-2.68-1.2-2.68-2.68,1.2-2.68,2.68-2.68,2.68,1.2,2.68,2.68Z"/><circle class="d" cx="11.19" cy="23.32" r="2.68"/><g><g><path class="c" d="M22.39,19.99c0,2.32-1.3,4.21-2.9,4.21s-2.9-1.88-2.9-4.21,1.3-4.21,2.9-4.21,2.9,1.88,2.9,4.21Z"/><path d="M21.82,21.94c0,1.04-.57,1.89-1.28,1.89s-1.28-.84-1.28-1.89,.57-1.89,1.28-1.89,1.28,.84,1.28,1.89Z"/><path class="c" d="M28.74,18.92c0,2.32-1.3,4.21-2.9,4.21s-2.9-1.88-2.9-4.21,1.3-4.21,2.9-4.21,2.9,1.88,2.9,4.21Z"/><path d="M28.17,20.87c0,1.04-.57,1.89-1.28,1.89s-1.28-.84-1.28-1.89,.57-1.89,1.28-1.89,1.28,.84,1.28,1.89Z"/><circle class="e" cx="29.5" cy="21.53" r="1.7"/><path d="M19.69,29.43c-.11,0-.22-.02-.32-.07-.37-.18-.54-.62-.36-.99,.03-.07,3.25-6.69,12.76-4.09,.4,.11,.64,.52,.53,.92s-.52,.63-.92,.53c-8.26-2.25-10.9,3.06-11.01,3.29-.13,.27-.4,.43-.68,.43Z"/></g><path d="M24.52,22.64c0,.75-.6,1.35-1.35,1.35s-1.35-.6-1.35-1.35,.6-1.35,1.35-1.35,1.35,.6,1.35,1.35Z"/></g></svg>