<?xml version="1.0" encoding="UTF-8"?><svg id="a" xmlns="http://www.w3.org/2000/svg" viewBox="0 0 45.92 45.92"><defs><style>.b{fill:#fff;}.c{fill:#14c6a2;}.d{fill:#4ae8c5;}</style></defs><path class="d" d="M4.67,22.43c-.98,.02-1.95-.04-2.9-.16,0,.31-.01,.62,0,.93,.18,11.71,9.83,21.06,21.54,20.88,11.71-.18,21.06-9.83,20.88-21.54-.17-10.73-8.27-19.46-18.63-20.72-.31,11.29-9.47,20.43-20.87,20.6Z"/><path class="b" d="M24.17,21.79c0,2.11-1.26,3.83-2.82,3.83s-2.82-1.71-2.82-3.83c0-.78,.17-1.51,.47-2.12,1.05-.44,2.12-1.11,2.87-1.63,1.3,.34,2.28,1.89,2.28,3.76Z"/><ellipse cx="21.43" cy="21.72" rx="1.24" ry="1.72"/><path class="b" d="M29.19,21.34c0,2.12-1.26,3.83-2.82,3.83s-2.82-1.71-2.82-3.83c0-1.77,.88-3.26,2.08-3.7h.02c.84,.59,1.98,1.06,2.96,1.39,.36,.64,.57,1.44,.57,2.3Z"/><path d="M27.69,21.28c0,.95-.56,1.72-1.24,1.72s-1.24-.77-1.24-1.72,.56-1.72,1.24-1.72,1.24,.77,1.24,1.72Z"/><path class="c" d="M37.32,25.12c0,1.48-1.2,2.68-2.68,2.68s-2.68-1.2-2.68-2.68,1.2-2.68,2.68-2.68,2.68,1.2,2.68,2.68Z"/><path class="c" d="M17.17,26.76c0,1.48-1.2,2.68-2.68,2.68s-2.68-1.2-2.68-2.68,1.2-2.68,2.68-2.68,2.68,1.2,2.68,2.68Z"/><path d="M21.95,28.52c1.74-.03,3.48-.23,5.18-.59,.4-.08,.63-.55,.52-.92-.11-.41-.53-.61-.92-.52-1.58,.34-3.15,.51-4.78,.54-.39,0-.77,.34-.75,.75,.02,.4,.33,.76,.75,.75h0Z"/><path d="M25.3,24.27c0,.75-.6,1.35-1.35,1.35s-1.35-.6-1.35-1.35,.6-1.35,1.35-1.35,1.35,.6,1.35,1.35Z"/></svg>