<?xml version="1.0" encoding="UTF-8"?><svg id="a" xmlns="http://www.w3.org/2000/svg" viewBox="0 0 45.92 45.92"><defs><style>.b{fill:#fff;}.c{fill:#b7b7b7;}.d{fill:#d8d8d8;}</style></defs><path class="d" d="M43.61,22.96c0-2.94-1.57-5.51-3.92-6.93,.66-2.66-.05-5.59-2.13-7.67-2.08-2.08-5.01-2.78-7.67-2.13-1.42-2.35-3.99-3.92-6.93-3.92s-5.51,1.57-6.93,3.91c-1.29-.32-2.67-.33-4.04,.04-4.27,1.14-6.82,5.49-5.77,9.76-1.14,.68-2.12,1.66-2.83,2.89-2.21,3.83-.94,8.7,2.83,10.98-.32,1.29-.33,2.67,.04,4.04,1.14,4.27,5.49,6.82,9.76,5.77,.68,1.14,1.66,2.12,2.89,2.83,3.83,2.21,8.71,.94,10.98-2.83,2.66,.65,5.59-.05,7.67-2.13,2.08-2.08,2.78-5.01,2.13-7.67,2.35-1.42,3.92-3.99,3.92-6.93Z"/><ellipse class="b" cx="20.14" cy="19.09" rx="2.98" ry="4.05"/><path d="M21.53,19.02c0,1-.59,1.81-1.31,1.81s-1.31-.81-1.31-1.81,.59-1.81,1.31-1.81,1.31,.81,1.31,1.81Z"/><path class="b" d="M28.42,18.62c0,2.24-1.33,4.05-2.98,4.05s-2.98-1.81-2.98-4.05,1.33-4.05,2.98-4.05,2.98,1.81,2.98,4.05Z"/><path d="M26.83,18.55c0,1-.59,1.81-1.31,1.81s-1.31-.81-1.31-1.81,.59-1.81,1.31-1.81,1.31,.81,1.31,1.81Z"/><circle class="c" cx="33.98" cy="21.57" r="2.64"/><path class="c" d="M15.57,25c0,1.46-1.18,2.64-2.64,2.64s-2.64-1.18-2.64-2.64,1.18-2.64,2.64-2.64,2.64,1.18,2.64,2.64Z"/><path d="M29.54,24.29c-.34,.4-.82,1.02-1.4,1.03-.47,0-.89-.42-1.27-.65-1.05-.65-2.12-.56-3.1,.19-.46,.35-.85,.84-1.39,1.07-.63,.27-.96-.31-1.46-.58-1.22-.68-2.45,.12-3.34,.96-.7,.67,.36,1.73,1.06,1.06,.36-.35,.97-.96,1.52-.72,.56,.24,.86,.74,1.51,.85,1.37,.24,2.14-.88,3.14-1.55,.98-.65,1.72,.48,2.64,.77,1.28,.4,2.36-.45,3.15-1.36,.63-.73-.43-1.79-1.06-1.06h0Z"/><path class="d" d="M21.79,14.33s-2.75,2.19-4.98,2.83c-2.23,.64-.04-1.63-.04-1.63l5.02-1.2Z"/><path class="d" d="M30.02,16.81s-3.43-.76-5.33-2.09c-1.9-1.33,1.24-1.06,1.24-1.06l4.09,3.15Z"/><circle cx="22.87" cy="21.95" r="1.35"/></svg>