<?xml version="1.0" encoding="UTF-8"?><svg id="a" xmlns="http://www.w3.org/2000/svg" viewBox="0 0 45.92 45.92"><defs><style>.b{fill:#fff;}.c{fill:#a088ff;}.d{fill:#c0c0ff;}</style></defs><g><circle class="d" cx="23.15" cy="22.96" r="18.71" transform="translate(-9.39 25.01) rotate(-48.37)"/><path class="c" d="M41.53,36.32c-1.55,2.72-12.88,.7-23.72-5.47C6.97,24.68,.73,16.69,2.28,13.97c1.55-2.72,11.59,.07,22.43,6.25,10.84,6.17,18.37,13.38,16.82,16.1Z"/><ellipse class="d" cx="23.03" cy="23.17" rx="4.8" ry="19.12" transform="translate(-8.5 31.72) rotate(-60.34)"/></g><path d="M27.41,24.5c0,1.37-1.1,2.48-2.47,2.48s-2.47-1.11-2.47-2.48,1.1-2.48,2.47-2.48,2.47,1.11,2.47,2.48Z"/><g><ellipse class="b" cx="20.79" cy="18.49" rx="2.08" ry="3.02"/><path d="M22.4,17.59c0,.75-.41,1.35-.92,1.35s-.92-.61-.92-1.35,.41-1.35,.92-1.35,.92,.61,.92,1.35Z"/><ellipse class="b" cx="25.13" cy="18.16" rx="2.08" ry="3.02"/><path d="M26.74,17.26c0,.75-.41,1.35-.92,1.35s-.92-.61-.92-1.35,.41-1.35,.92-1.35,.92,.61,.92,1.35Z"/><path d="M24.19,20.28c0,.67-.54,1.21-1.21,1.21s-1.21-.54-1.21-1.21,.54-1.21,1.21-1.21,1.21,.54,1.21,1.21Z"/></g></svg>