<?xml version="1.0" encoding="UTF-8"?><svg id="a" xmlns="http://www.w3.org/2000/svg" viewBox="0 0 45.92 45.92"><defs><style>.b{fill:#fff;}.c{fill:#f50357;}.d{fill:#fe4081;}</style></defs><path class="d" d="M44.05,22.96c0,1.97-5.8,3-6.38,4.78-.6,1.84,3.46,6.08,2.35,7.62-1.13,1.55-6.42-1.01-7.97,.12-1.53,1.12-.73,6.95-2.57,7.55-1.78,.58-4.55-4.6-6.52-4.6s-4.74,5.17-6.52,4.59c-1.84-.6-1.04-6.43-2.57-7.55-1.55-1.13-6.84,1.43-7.97-.12-1.12-1.53,2.95-5.77,2.35-7.62-.58-1.78-6.38-2.81-6.38-4.78s5.8-3,6.38-4.78c.6-1.84-3.46-6.08-2.35-7.62,1.13-1.55,6.42,1.01,7.97-.12,1.53-1.12,.73-6.95,2.57-7.55,1.78-.58,4.55,4.6,6.52,4.6s4.74-5.17,6.52-4.6c1.84,.6,1.04,6.43,2.57,7.55,1.55,1.13,6.84-1.43,7.97,.12,1.12,1.53-2.95,5.77-2.35,7.62,.58,1.78,6.38,2.81,6.38,4.78Z"/><ellipse class="b" cx="19.43" cy="19.1" rx="3.12" ry="4.25"/><path d="M20.89,19.03c0,1.05-.62,1.9-1.38,1.9s-1.38-.85-1.38-1.9,.62-1.9,1.38-1.9,1.38,.85,1.38,1.9Z"/><path class="b" d="M28.12,18.6c0,2.35-1.4,4.25-3.12,4.25s-3.12-1.9-3.12-4.25,1.4-4.25,3.12-4.25,3.12,1.9,3.12,4.25Z"/><ellipse cx="25.07" cy="18.53" rx="1.38" ry="1.9"/><path class="c" d="M36.99,20.95c0,1.53-1.24,2.77-2.77,2.77s-2.77-1.24-2.77-2.77,1.24-2.77,2.77-2.77,2.77,1.24,2.77,2.77Z"/><path class="c" d="M15.37,25.52c0,1.53-1.24,2.77-2.77,2.77s-2.77-1.24-2.77-2.77,1.24-2.77,2.77-2.77,2.77,1.24,2.77,2.77Z"/><path class="d" d="M28.18,13.3s-3.63,3.6-6.07,3.6c-.03,0,.8-2.34,.8-2.34l5.27-1.26Z"/><path class="d" d="M22.13,16.89s-3.67-1.8-5.67-3.2c-2-1.4,4.88-.71,4.88-.71l.78,3.91Z"/><circle cx="22.29" cy="22.1" r="1.35"/><path d="M19.42,30.67c-.33,0-.63-.22-.72-.55-.33-1.16-.14-2.39,.54-3.46,.8-1.26,2.23-2.21,3.72-2.46,2.43-.41,4.84,.9,6.13,3.33,.19,.37,.06,.82-.31,1.01-.37,.19-.82,.05-1.01-.31-.98-1.85-2.76-2.86-4.56-2.56-1.09,.18-2.12,.86-2.7,1.78-.32,.5-.63,1.29-.36,2.25,.11,.4-.12,.81-.52,.93-.07,.02-.14,.03-.2,.03Z"/></svg>