<?xml version="1.0" encoding="UTF-8"?><svg id="a" xmlns="http://www.w3.org/2000/svg" viewBox="0 0 45.92 45.92"><defs><style>.b{fill:#696969;}.c{fill:#fff;}.d{fill:#5c5c5c;}</style></defs><g><path class="b" d="M44.18,22.96c0,.98-5.7,1.5-5.85,2.44-.15,.96,5.11,3.21,4.81,4.12-.3,.92-5.88-.35-6.31,.51-.44,.86,3.86,4.63,3.3,5.41-.57,.78-5.48-2.15-6.16-1.47-.68,.68,2.25,5.59,1.47,6.16-.78,.56-4.55-3.74-5.41-3.3-.85,.43,.42,6.01-.51,6.31-.91,.29-3.16-4.96-4.12-4.81-.94,.15-1.46,5.85-2.44,5.85s-1.5-5.7-2.44-5.85c-.96-.15-3.21,5.11-4.12,4.81-.92-.3,.35-5.88-.51-6.31-.86-.44-4.63,3.86-5.41,3.3-.78-.57,2.15-5.48,1.47-6.16-.68-.68-5.59,2.25-6.16,1.47-.56-.78,3.74-4.55,3.3-5.41-.44-.85-6.01,.42-6.31-.51-.29-.91,4.96-3.16,4.81-4.12-.15-.94-5.85-1.46-5.85-2.44s5.7-1.5,5.85-2.44c.15-.96-5.11-3.21-4.81-4.12,.3-.92,5.88,.35,6.31-.51,.44-.86-3.86-4.63-3.3-5.41,.57-.78,5.48,2.15,6.16,1.47,.68-.68-2.25-5.59-1.47-6.16,.78-.56,4.55,3.74,5.41,3.3,.85-.43-.42-6.01,.51-6.31,.91-.29,3.16,4.96,4.12,4.81,.94-.15,1.46-5.85,2.44-5.85s1.5,5.7,2.44,5.85c.96,.15,3.21-5.11,4.12-4.81,.92,.3-.35,5.88,.51,6.31,.86,.44,4.63-3.86,5.41-3.3,.78,.57-2.15,5.48-1.47,6.16,.68,.68,5.59-2.25,6.16-1.47,.56,.78-3.74,4.55-3.3,5.41,.44,.85,6.01-.42,6.31,.51,.29,.91-4.96,3.16-4.81,4.12,.15,.94,5.85,1.46,5.85,2.44Z"/><ellipse class="c" cx="19.43" cy="19.1" rx="3.12" ry="4.25"/><path d="M19.28,18.06c0,1.05-.62,1.9-1.38,1.9s-1.38-.85-1.38-1.9,.62-1.9,1.38-1.9,1.38,.85,1.38,1.9Z"/><ellipse class="c" cx="24.93" cy="18.35" rx="3.12" ry="4.25"/><path d="M25.01,18.2c0,1.05-.62,1.9-1.38,1.9s-1.38-.85-1.38-1.9,.62-1.9,1.38-1.9,1.38,.85,1.38,1.9Z"/><path class="d" d="M36.99,20.95c0,1.53-1.24,2.77-2.77,2.77s-2.77-1.24-2.77-2.77,1.24-2.77,2.77-2.77,2.77,1.24,2.77,2.77Z"/><path class="d" d="M15.37,25.52c0,1.53-1.24,2.77-2.77,2.77s-2.77-1.24-2.77-2.77,1.24-2.77,2.77-2.77,2.77,1.24,2.77,2.77Z"/><path class="b" d="M28.12,13.05s-3.66,3.7-6.1,3.7c-.03,0,.83-2.44,.83-2.44l5.27-1.26Z"/><path class="b" d="M22.03,16.76s-3.56-1.67-5.56-3.07c-2-1.4,4.88-.71,4.88-.71l.68,3.78Z"/><circle cx="22.29" cy="22.1" r="1.35"/></g><path d="M17.48,27.43c-.31,0-.6-.19-.71-.5-.14-.39,.07-.82,.46-.96l10.92-3.87c.39-.14,.82,.07,.96,.46,.14,.39-.07,.82-.46,.96l-10.92,3.87c-.08,.03-.17,.04-.25,.04Z"/></svg>