<svg width="33" height="29" viewBox="0 0 33 29" fill="none" xmlns="http://www.w3.org/2000/svg">
<mask id="path-1-inside-1_49_8482" fill="white">
<path fill-rule="evenodd" clip-rule="evenodd" d="M16.5601 28.0243C9.12408 28.0243 3.09619 21.9964 3.09619 14.5604C3.09619 7.12446 9.12408 1.09619 16.5601 1.09619C23.9964 1.09619 30.0243 7.12446 30.0243 14.5604C30.0243 21.9964 23.9964 28.0243 16.5601 28.0243V28.0243Z"/>
</mask>
<path fill-rule="evenodd" clip-rule="evenodd" d="M16.5601 28.0243C9.12408 28.0243 3.09619 21.9964 3.09619 14.5604C3.09619 7.12446 9.12408 1.09619 16.5601 1.09619C23.9964 1.09619 30.0243 7.12446 30.0243 14.5604C30.0243 21.9964 23.9964 28.0243 16.5601 28.0243V28.0243Z" stroke="black" stroke-width="2.4" mask="url(#path-1-inside-1_49_8482)"/>
<path fill-rule="evenodd" clip-rule="evenodd" d="M13.2603 11.9175C13.2603 11.2628 13.7907 10.7324 14.4453 10.7324C15.1 10.7324 15.6304 11.2628 15.6304 11.9175C15.6304 12.5721 15.1 13.1025 14.4453 13.1025C13.7907 13.1025 13.2603 12.5721 13.2603 11.9175V11.9175Z" fill="black"/>
<path fill-rule="evenodd" clip-rule="evenodd" d="M19.0842 13.1025C18.4296 13.1025 17.8992 12.5721 17.8992 11.9175C17.8992 11.2628 18.4296 10.7324 19.0842 10.7324C19.7389 10.7324 20.2693 11.2628 20.2693 11.9175C20.2693 12.5721 19.7389 13.1025 19.0842 13.1025V13.1025Z" fill="black"/>
<path d="M19.9453 14.9814C19.9453 16.7895 18.4797 18.255 16.6717 18.255C14.8636 18.255 13.3977 16.7895 13.3977 14.9814" stroke="black" stroke-width="1.2"/>
<path fill-rule="evenodd" clip-rule="evenodd" d="M16.5599 28.6171C8.79393 28.6171 2.50353 22.3267 2.50353 14.5606C2.50353 12.0926 3.14038 9.77141 4.25928 7.75584C2.86987 10.7799 6.89539 16.1534 13.4568 19.9394C20.0823 23.7619 26.8157 24.5402 28.6521 21.7262C26.21 25.8542 21.7058 28.6171 16.5599 28.6171V28.6171Z" fill="black"/>
<mask id="path-6-outside-2_49_8482" maskUnits="userSpaceOnUse" x="-0.249756" y="1.89404" width="33" height="25" fill="black">
<rect fill="white" x="-0.249756" y="1.89404" width="33" height="25"/>
<path fill-rule="evenodd" clip-rule="evenodd" d="M2.27906 6.31628C0.120714 10.0539 4.76464 16.7765 12.6518 21.33C20.5404 25.8836 28.6837 26.546 30.842 22.8071C32.9999 19.0694 28.3547 12.3468 20.4675 7.79327C12.5805 3.23974 4.43615 2.57865 2.27906 6.31628V6.31628Z"/>
</mask>
<path fill-rule="evenodd" clip-rule="evenodd" d="M2.27906 6.31628C0.120714 10.0539 4.76464 16.7765 12.6518 21.33C20.5404 25.8836 28.6837 26.546 30.842 22.8071C32.9999 19.0694 28.3547 12.3468 20.4675 7.79327C12.5805 3.23974 4.43615 2.57865 2.27906 6.31628V6.31628Z" fill="white"/>
<path fill-rule="evenodd" clip-rule="evenodd" d="M2.27906 6.31628C0.120714 10.0539 4.76464 16.7765 12.6518 21.33C20.5404 25.8836 28.6837 26.546 30.842 22.8071C32.9999 19.0694 28.3547 12.3468 20.4675 7.79327C12.5805 3.23974 4.43615 2.57865 2.27906 6.31628V6.31628Z" stroke="black" stroke-width="2.26792" stroke-linejoin="round" mask="url(#path-6-outside-2_49_8482)"/>
<path fill-rule="evenodd" clip-rule="evenodd" d="M28.8317 21.4203C28.7751 21.5213 28.7142 21.629 28.6526 21.7259C26.8162 24.5399 20.0826 23.7617 13.4571 19.9392C6.89562 16.1532 2.87012 10.7797 4.25939 7.75564C4.3473 7.60349 4.43321 7.45135 4.51953 7.30326C6.98353 3.2479 11.4668 0.503906 16.5602 0.503906C24.3224 0.503906 30.6169 6.79966 30.6169 14.5604C30.6169 17.0539 29.9705 19.3953 28.8317 21.4203V21.4203Z" fill="black"/>
<path fill-rule="evenodd" clip-rule="evenodd" d="M4.51978 7.30324C4.43323 7.45132 4.34717 7.6035 4.25964 7.75562C4.29602 7.68022 4.3363 7.6035 4.37683 7.52673C4.42249 7.45132 4.46826 7.37459 4.51978 7.30324V7.30324Z" fill="white"/>
<path fill-rule="evenodd" clip-rule="evenodd" d="M28.7386 21.5936C28.7142 21.6393 28.6832 21.6851 28.6523 21.7255C28.7142 21.6286 28.7694 21.5316 28.8259 21.4307C28.8003 21.4859 28.7694 21.537 28.7386 21.5936V21.5936Z" fill="white"/>
<path fill-rule="evenodd" clip-rule="evenodd" d="M15.4205 7.71387C17.1175 7.71387 18.4932 9.51616 18.4932 11.7394C18.4932 13.9626 17.1175 15.7649 15.4205 15.7649C13.7236 15.7649 12.3479 13.9626 12.3479 11.7394C12.3479 9.51616 13.7236 7.71387 15.4205 7.71387V7.71387Z" fill="white"/>
<path fill-rule="evenodd" clip-rule="evenodd" d="M16.4321 8.84717C17.1803 8.84717 17.7868 9.74226 17.7868 10.8464C17.7868 11.9505 17.1803 12.8456 16.4321 12.8456C15.6839 12.8456 15.0774 11.9505 15.0774 10.8464C15.0774 9.74226 15.6839 8.84717 16.4321 8.84717V8.84717Z" fill="black"/>
<path fill-rule="evenodd" clip-rule="evenodd" d="M21.3788 7.68506C23.0758 7.68506 24.4514 9.48735 24.4514 11.7106C24.4514 13.9338 23.0758 15.7361 21.3788 15.7361C19.6818 15.7361 18.3062 13.9338 18.3062 11.7106C18.3062 9.48735 19.6818 7.68506 21.3788 7.68506V7.68506Z" fill="white"/>
<path fill-rule="evenodd" clip-rule="evenodd" d="M22.3904 8.81494C23.1385 8.81494 23.7451 9.71003 23.7451 10.8142C23.7451 11.9183 23.1385 12.8134 22.3904 12.8134C21.6422 12.8134 21.0356 11.9183 21.0356 10.8142C21.0356 9.71003 21.6422 8.81494 22.3904 8.81494V8.81494Z" fill="black"/>
</svg>
