<?xml version="1.0" encoding="UTF-8"?><svg id="a" xmlns="http://www.w3.org/2000/svg" viewBox="0 0 45.92 45.92"><defs><style>.b{fill:#fff;}.c{fill:#ffa2ed;}.d{fill:#f24ef1;}</style></defs><path class="c" d="M39.88,23.02c3.03-2.97,4.42-7.45,3.23-11.85-1.75-6.47-8.42-10.29-14.89-8.54-2.03,.55-3.79,1.58-5.21,2.94-2.97-2.86-7.32-4.15-11.59-2.99C4.94,4.33,1.11,11,2.87,17.47c.58,2.14,1.7,3.98,3.17,5.44-3.03,2.97-4.42,7.45-3.23,11.85,1.75,6.47,8.42,10.29,14.89,8.54,2.03-.55,3.79-1.58,5.21-2.94,2.97,2.86,7.32,4.15,11.59,2.99,6.47-1.75,10.29-8.42,8.54-14.89-.58-2.14-1.7-3.98-3.17-5.44Z"/><path class="b" d="M22.5,18.52c0,2.38-1.34,4.3-2.98,4.29-1.64,0-2.96-1.93-2.95-4.31,0-2.38,1.34-4.3,2.98-4.29s2.96,1.93,2.95,4.31Z"/><path d="M22.02,17.31c0,1.06-.59,1.93-1.31,1.92-.72,0-1.3-.87-1.3-1.93s.59-1.93,1.31-1.92c.72,0,1.3,.87,1.3,1.93Z"/><path class="b" d="M28.07,18.45c0,2.38-1.34,4.3-2.98,4.29-1.64,0-2.96-1.93-2.95-4.31,0-2.38,1.34-4.3,2.98-4.29,1.64,0,2.96,1.93,2.95,4.31Z"/><path d="M27.66,17.47c0,1.06-.59,1.93-1.31,1.92-.72,0-1.3-.87-1.3-1.93,0-1.06,.59-1.93,1.31-1.92,.72,0,1.3,.87,1.3,1.93Z"/><path class="d" d="M17.66,23.11c0,.91-1.31,1.65-2.92,1.65s-2.91-.75-2.91-1.66c0-.91,1.31-1.65,2.92-1.65s2.91,.75,2.91,1.66Z"/><path d="M22.51,26.62h-.06c-1.25-.02-2.35-.59-2.85-1.5-.2-.36-.07-.82,.29-1.02,.36-.2,.82-.07,1.02,.29,.29,.53,1.03,.73,1.56,.73,.93,.04,1.9-.41,2.53-1.13,.27-.31,.75-.34,1.06-.07,.31,.27,.34,.75,.07,1.06-.9,1.03-2.25,1.64-3.62,1.64Z"/><path d="M23.85,20.97c.15,.73-.32,1.44-1.04,1.6-.73,.15-1.44-.32-1.6-1.04s.31-1.44,1.04-1.6c.73-.15,1.44,.32,1.6,1.04Z"/><path class="d" d="M33.49,22.89c0,.91-1.31,1.65-2.92,1.65s-2.91-.75-2.91-1.66c0-.91,1.31-1.65,2.92-1.65s2.91,.75,2.91,1.66Z"/></svg>