<?xml version="1.0" encoding="UTF-8"?><svg id="a" xmlns="http://www.w3.org/2000/svg" viewBox="0 0 45.92 45.92"><defs><style>.b{fill:#ffac24;}.c{fill:#ff8d27;}</style></defs><path class="b" d="M46.25,23.03c-.01,3.83-5.31,6.25-7.11,9.33-1.85,3.18-1.4,8.97-4.6,10.8-3.09,1.78-7.82-1.48-11.64-1.49-3.83-.01-8.57,3.22-11.65,1.42-3.18-1.85-2.7-7.63-4.53-10.83C4.94,29.17-.34,26.71-.33,22.89c.01-3.83,5.31-6.25,7.11-9.33,1.85-3.18,1.4-8.97,4.6-10.8,3.09-1.78,7.82,1.48,11.64,1.49,3.83,.01,8.57-3.22,11.65-1.42,3.18,1.85,2.7,7.63,4.53,10.83,1.78,3.09,7.06,5.55,7.05,9.38Z"/><path class="c" d="M35.67,17.94c0,1.53-1.25,2.77-2.78,2.76-1.53,0-2.77-1.25-2.76-2.78,0-1.53,1.25-2.77,2.78-2.76,1.53,0,2.77,1.25,2.76,2.78Z"/><path class="c" d="M15.21,18.5c0,1.53-1.25,2.77-2.78,2.76-1.53,0-2.77-1.25-2.76-2.78,0-1.53,1.25-2.77,2.78-2.76,1.53,0,2.77,1.25,2.76,2.78Z"/><g><path d="M23.61,17.29c0,.71-.61,1.28-1.35,1.28-.75,0-1.35-.58-1.35-1.28s.61-1.28,1.35-1.28c.75,0,1.35,.58,1.35,1.28Z"/><path d="M19.67,15.96h0c-.34,0-.61-.28-.61-.62,0-.71-.4-1.14-.8-1.26-.21-.06-.62-.08-.94,.44-.13,.22-.22,.51-.23,.78-.01,.34-.27,.64-.64,.59-.34-.01-.6-.3-.59-.64,.02-.48,.16-.97,.4-1.37,.52-.87,1.41-1.24,2.32-.99,1.02,.29,1.71,1.27,1.7,2.44,0,.34-.28,.61-.62,.61Z"/><path d="M28.05,15.99h0c-.34,0-.61-.28-.61-.62,0-.71-.4-1.14-.8-1.25-.21-.06-.62-.08-.94,.44-.13,.22-.22,.51-.23,.78-.01,.34-.3,.63-.64,.59-.34-.01-.6-.3-.59-.64,.02-.49,.16-.97,.4-1.37,.52-.87,1.41-1.25,2.32-.99,1.02,.29,1.71,1.27,1.7,2.44,0,.34-.28,.61-.62,.61Z"/></g><path d="M10.67,19.87c2.64,2.28,5.84,3.87,9.31,4.39,3.38,.5,6.8,.03,9.93-1.34,1.87-.82,3.56-1.97,5.08-3.32,.72-.65-.34-1.7-1.06-1.06-4.76,4.26-11.51,5.65-17.47,3.21-1.72-.7-3.31-1.72-4.72-2.93-.73-.63-1.79,.43-1.06,1.06h0Z"/></svg>