<?xml version="1.0" encoding="UTF-8"?><svg id="a" xmlns="http://www.w3.org/2000/svg" viewBox="0 0 45.92 45.92"><defs><style>.b{fill:#f63771;}.c{fill:#9860e2;}.d{fill:#b98fff;}</style></defs><g><path class="d" d="M39.74,25.36c-1.16-.67-3.61-1.62-6.29-2.37,2.69-.73,5.15-1.66,6.31-2.33,3.05-1.75,4.1-5.63,2.35-8.68-1.75-3.05-5.63-4.1-8.68-2.35-1.16,.66-3.2,2.31-5.2,4.27,.71-2.7,1.13-5.29,1.14-6.63,.01-3.51-2.83-6.37-6.34-6.38-3.51-.01-6.37,2.83-6.38,6.34,0,1.34,.4,3.93,1.1,6.64-1.98-1.97-4.02-3.63-5.17-4.3-3.04-1.77-6.93-.74-8.69,2.3-1.77,3.04-.74,6.93,2.3,8.69,1.16,.67,3.61,1.62,6.29,2.37-2.69,.73-5.15,1.66-6.31,2.33-3.05,1.75-4.1,5.63-2.35,8.68s5.63,4.1,8.68,2.35c1.16-.66,3.2-2.31,5.2-4.27-.71,2.7-1.13,5.29-1.14,6.63-.01,3.51,2.83,6.37,6.34,6.38,3.51,.01,6.37-2.83,6.38-6.34,0-1.34-.4-3.93-1.1-6.64,1.98,1.97,4.02,3.63,5.17,4.3,3.04,1.77,6.93,.74,8.69-2.3,1.77-3.04,.74-6.93-2.3-8.69Z"/><path d="M23.45,20.53c.15,.73-.31,1.44-1.04,1.6-.73,.15-1.44-.31-1.6-1.04s.32-1.44,1.04-1.6,1.44,.32,1.6,1.04Z"/><path d="M16.84,19.38c.71,.34,1.41,.69,2.12,1.03v-1.2c-.7,.46-1.41,.9-2.13,1.34-.31,.19-.45,.63-.25,.95,.2,.31,.62,.45,.95,.25,.72-.44,1.43-.88,2.13-1.34,.21-.13,.34-.34,.34-.6,0-.23-.13-.49-.34-.6-.71-.34-1.41-.69-2.12-1.03-.17-.08-.35-.12-.53-.07-.16,.04-.33,.17-.41,.32-.16,.31-.1,.78,.25,.95h0Z"/><path d="M24.71,16.44c-.51,.6-1.02,1.2-1.52,1.79-.16,.19-.25,.42-.18,.67,.06,.21,.25,.45,.48,.48,.83,.14,1.66,.26,2.49,.37,.19,.03,.36,.03,.53-.07,.14-.08,.28-.25,.32-.41,.04-.18,.03-.38-.07-.53-.09-.14-.24-.29-.41-.32-.83-.11-1.66-.24-2.49-.37,.1,.39,.2,.77,.31,1.16,.51-.6,1.02-1.2,1.52-1.79,.12-.14,.2-.3,.2-.49,0-.17-.08-.37-.2-.49-.26-.24-.73-.29-.98,0h0Z"/><g><path d="M25.56,22.81c.09,.48,.04,.95-.11,1.39-.34,.97-1.22,1.76-2.36,1.96-1.18,.22-2.32-.25-2.98-1.1-.25-.33-.44-.73-.52-1.16-.28-1.55,1.21-.73,2.86-1.03s2.82-1.61,3.11-.06Z"/><path class="b" d="M25.45,24.19c-.34,.97-1.22,1.76-2.36,1.96-1.18,.22-2.32-.25-2.98-1.1,.33-.55,.92-1.03,1.65-1.31,1.28-.49,2.89-.29,3.69,.45Z"/></g></g><path class="c" d="M34.1,19.48c-.3,1.5-1.77,2.47-3.26,2.16-1.5-.3-2.47-1.77-2.16-3.27,.3-1.5,1.77-2.47,3.26-2.16s2.47,1.77,2.16,3.27Z"/><path class="c" d="M17.22,26.54c-.3,1.5-1.77,2.47-3.27,2.16-1.5-.3-2.47-1.77-2.16-3.26,.3-1.5,1.77-2.47,3.27-2.16,1.5,.3,2.47,1.77,2.16,3.26Z"/></svg>