<?xml version="1.0" encoding="UTF-8"?><svg id="a" xmlns="http://www.w3.org/2000/svg" viewBox="0 0 45.92 45.92"><defs><style>.b{fill:#f63771;}.c{fill:#ffb000;}.d{fill:#fff;}.e{fill:#ffe33f;}</style></defs><path class="e" d="M41.47,41.59c-4.22,4.19-13.06-1.82-18.57-1.84-5.51-.02-14.39,5.94-18.58,1.72-4.19-4.22,1.82-13.06,1.84-18.57,.02-5.51-5.94-14.39-1.72-18.58,4.22-4.19,13.06,1.82,18.57,1.84,5.51,.02,14.39-5.94,18.58-1.72,4.19,4.22-1.82,13.06-1.84,18.57-.02,5.51,5.94,14.39,1.72,18.58Z"/><g><g><path class="d" d="M22.38,20.73c0,2.23-1.26,4.03-2.79,4.02-1.53,0-2.77-1.81-2.77-4.04,0-2.23,1.26-4.03,2.79-4.02,1.53,0,2.77,1.81,2.77,4.04Z"/><path d="M21.83,22.6c0,1-.55,1.81-1.23,1.8-.68,0-1.22-.81-1.22-1.81,0-1,.55-1.81,1.23-1.8,.68,0,1.22,.81,1.22,1.81Z"/><path class="d" d="M28.17,20.31c0,2.23-1.26,4.03-2.79,4.02-1.53,0-2.77-1.81-2.77-4.04,0-2.23,1.26-4.03,2.79-4.02,1.53,0,2.77,1.81,2.77,4.04Z"/><path d="M27.62,22.18c0,1-.55,1.81-1.23,1.8-.68,0-1.22-.81-1.22-1.81,0-1,.55-1.81,1.23-1.8,.68,0,1.22,.81,1.22,1.81Z"/><path d="M24.05,23.01c.43,.6,.27,1.43-.34,1.87-.61,.44-1.45,.3-1.88-.29s-.27-1.43,.34-1.87,1.45-.3,1.88,.29Z"/><g><path d="M19.74,26.47c.03-.3,.18-.62,.56-.69,.59-.1,1.18,.29,1.74,.34,.65,.07,1.33-.16,1.93-.44,.46-.21,.96-.47,1.46-.43,.54,.04,.9,.43,1.04,.84,.33,.97-.39,2.15-1.54,2.71-1.15,.56-2.6,.52-3.64,0-.9-.45-1.5-1.24-1.56-2.13,0-.07,0-.14,0-.22Z"/><path class="b" d="M24.93,28.81c.49-.24,.9-.59,1.18-.99-.08-.1-.17-.2-.27-.28-.45-.35-1.18-.48-1.74-.25-.35,.15-.63,.42-1.02,.45-.21,.01-.42-.06-.63-.11-.53-.13-1.19-.1-1.51,.26-.15,.17-.19,.38-.18,.59,.16,.12,.34,.24,.53,.33,1.04,.52,2.49,.55,3.64,0Z"/></g></g><path class="c" d="M37.6,24.34c0,1.53-1.25,2.77-2.78,2.76-1.53,0-2.77-1.25-2.76-2.78,0-1.53,1.25-2.77,2.78-2.76s2.77,1.25,2.76,2.78Z"/><path class="c" d="M14.33,22.88c0,1.53-1.25,2.77-2.78,2.76s-2.77-1.25-2.76-2.78c0-1.53,1.25-2.77,2.78-2.76,1.53,0,2.77,1.25,2.76,2.78Z"/></g></svg>