<?xml version="1.0" encoding="UTF-8"?><svg id="a" xmlns="http://www.w3.org/2000/svg" viewBox="0 0 45.92 45.92"><defs><style>.b{fill:#fff;}.c{fill:#b39eff;}.d{fill:#7054d3;}</style></defs><circle class="c" cx="22.96" cy="22.96" r="19.88"/><path class="d" d="M37.19,23.92c-.3,1.5-1.77,2.47-3.26,2.16-1.5-.3-2.47-1.77-2.16-3.27,.3-1.5,1.77-2.47,3.26-2.16,1.5,.3,2.47,1.77,2.16,3.27Z"/><path class="d" d="M13.87,23.92c-.3,1.5-1.77,2.47-3.27,2.16-1.5-.3-2.47-1.77-2.16-3.26,.3-1.5,1.77-2.47,3.27-2.16,1.5,.3,2.47,1.77,2.16,3.26Z"/><g><g><ellipse class="b" cx="20.03" cy="16.7" rx="3.12" ry="4.25"/><path d="M21.49,16.7c0,1.05-.62,1.9-1.38,1.9s-1.38-.85-1.38-1.9,.62-1.9,1.38-1.9,1.38,.85,1.38,1.9Z"/><ellipse class="b" cx="25.59" cy="16.7" rx="3.12" ry="4.25"/><path d="M27.05,16.7c0,1.05-.62,1.9-1.38,1.9s-1.38-.85-1.38-1.9,.62-1.9,1.38-1.9,1.38,.85,1.38,1.9Z"/></g><circle cx="22.81" cy="19.51" r="1.35"/></g><path d="M27.3,25.81c-.41,0-.75-.34-.75-.75,0-.89-1.41-1.87-3.43-1.87s-3.43,.99-3.43,1.87c0,.41-.34,.75-.75,.75s-.75-.34-.75-.75c0-1.89,2.16-3.37,4.93-3.37s4.93,1.48,4.93,3.37c0,.41-.34,.75-.75,.75Z"/></svg>