<svg width="20" height="15" viewBox="0 0 20 15" fill="none" xmlns="http://www.w3.org/2000/svg">
<path d="M13.6069 3.20941L13.6071 3.20929L15.1072 1.70832C15.1072 1.70826 15.1073 1.7082 15.1073 1.70815C15.1074 1.70812 15.1074 1.7081 15.1074 1.70807C15.9483 0.868149 17.3106 0.868162 18.1514 1.70811C18.9916 2.54907 18.9915 3.91156 18.1513 4.75249L18.0481 4.85566L18.0481 4.85571L16.6504 6.25257L16.6502 6.2527L10.0406 12.8632L10.0406 12.8632C9.96999 12.9338 9.88434 12.9867 9.79016 13.0177L9.78966 13.0179L6.9924 13.9444C6.99238 13.9444 6.99236 13.9444 6.99233 13.9445C6.3419 14.1597 5.72299 13.5454 5.93322 12.8937L6.84378 10.0718C6.8438 10.0717 6.84381 10.0717 6.84383 10.0716C6.87498 9.97529 6.9284 9.88774 7.00074 9.81474C7.00091 9.81457 7.00108 9.81439 7.00125 9.81422L13.6069 3.20941Z" stroke="#707070" stroke-linecap="round" stroke-linejoin="round"/>
<path d="M8.83679 10.9697L16.0741 3.73241" stroke="#707070" stroke-linecap="round" stroke-linejoin="round"/>
<path d="M1.10364 13.9043L6.88621 13.955" stroke="#707070" stroke-linecap="round" stroke-linejoin="round"/>
<path fill-rule="evenodd" clip-rule="evenodd" d="M7.39319 10.083L9.5745 12.2643L7.39319 10.083Z" fill="white"/>
<path d="M7.39319 10.083L9.5745 12.2643" stroke="#707070" stroke-linecap="round" stroke-linejoin="round"/>
<path d="M14.7025 2.31738L17.3871 5.00198" stroke="#707070" stroke-linecap="round" stroke-linejoin="round"/>
</svg>
