<svg width="39" height="33" viewBox="0 0 39 33" fill="none" xmlns="http://www.w3.org/2000/svg">
<mask id="path-1-inside-1_49_4832" fill="white">
<path fill-rule="evenodd" clip-rule="evenodd" d="M16.8106 28.099C9.37457 28.099 3.34668 22.0711 3.34668 14.6351C3.34668 7.19916 9.37457 1.1709 16.8106 1.1709C24.2469 1.1709 30.2748 7.19916 30.2748 14.6351C30.2748 22.0711 24.2469 28.099 16.8106 28.099V28.099Z"/>
</mask>
<path fill-rule="evenodd" clip-rule="evenodd" d="M16.8106 28.099C9.37457 28.099 3.34668 22.0711 3.34668 14.6351C3.34668 7.19916 9.37457 1.1709 16.8106 1.1709C24.2469 1.1709 30.2748 7.19916 30.2748 14.6351C30.2748 22.0711 24.2469 28.099 16.8106 28.099V28.099Z" stroke="black" stroke-width="2.4" mask="url(#path-1-inside-1_49_4832)"/>
<path fill-rule="evenodd" clip-rule="evenodd" d="M13.5107 11.9917C13.5107 11.337 14.0411 10.8066 14.6958 10.8066C15.3504 10.8066 15.8808 11.337 15.8808 11.9917C15.8808 12.6463 15.3504 13.1767 14.6958 13.1767C14.0411 13.1767 13.5107 12.6463 13.5107 11.9917V11.9917Z" fill="black"/>
<path fill-rule="evenodd" clip-rule="evenodd" d="M19.3345 13.1767C18.6798 13.1767 18.1494 12.6463 18.1494 11.9917C18.1494 11.337 18.6798 10.8066 19.3345 10.8066C19.9891 10.8066 20.5195 11.337 20.5195 11.9917C20.5195 12.6463 19.9891 13.1767 19.3345 13.1767V13.1767Z" fill="black"/>
<path d="M20.195 15.0566C20.195 16.8647 18.7295 18.3302 16.9214 18.3302C15.1134 18.3302 13.6475 16.8647 13.6475 15.0566" stroke="black" stroke-width="1.2"/>
<path fill-rule="evenodd" clip-rule="evenodd" d="M16.8102 28.6913C9.04418 28.6913 2.75378 22.4009 2.75378 14.6348C2.75378 12.1668 3.39062 9.84563 4.50952 7.83006C3.12012 10.8541 7.14564 16.2276 13.707 20.0137C20.3325 23.8361 27.0659 24.6144 28.9023 21.8004C26.4602 25.9285 21.956 28.6913 16.8102 28.6913V28.6913Z" fill="black"/>
<mask id="path-6-outside-2_49_4832" maskUnits="userSpaceOnUse" x="0" y="1.96875" width="33" height="25" fill="black">
<rect fill="white" y="1.96875" width="33" height="25"/>
<path fill-rule="evenodd" clip-rule="evenodd" d="M2.52881 6.39098C0.370469 10.1286 5.0144 16.8512 12.9016 21.4047C20.7902 25.9583 28.9335 26.6207 31.0918 22.8818C33.2496 19.1441 28.6045 12.4215 20.7173 7.86798C12.8302 3.31444 4.68591 2.65335 2.52881 6.39098V6.39098Z"/>
</mask>
<path fill-rule="evenodd" clip-rule="evenodd" d="M2.52881 6.39098C0.370469 10.1286 5.0144 16.8512 12.9016 21.4047C20.7902 25.9583 28.9335 26.6207 31.0918 22.8818C33.2496 19.1441 28.6045 12.4215 20.7173 7.86798C12.8302 3.31444 4.68591 2.65335 2.52881 6.39098V6.39098Z" fill="white"/>
<path fill-rule="evenodd" clip-rule="evenodd" d="M2.52881 6.39098C0.370469 10.1286 5.0144 16.8512 12.9016 21.4047C20.7902 25.9583 28.9335 26.6207 31.0918 22.8818C33.2496 19.1441 28.6045 12.4215 20.7173 7.86798C12.8302 3.31444 4.68591 2.65335 2.52881 6.39098V6.39098Z" stroke="black" stroke-width="2.26792" stroke-linejoin="round" mask="url(#path-6-outside-2_49_4832)"/>
<path fill-rule="evenodd" clip-rule="evenodd" d="M29.0814 21.4945C29.0249 21.5955 28.964 21.7032 28.9023 21.8002C27.0659 24.6141 20.3324 23.8359 13.7069 20.0134C7.14538 16.2274 3.11987 10.8539 4.50915 7.82986C4.59706 7.67771 4.68297 7.52557 4.76928 7.37748C7.23329 3.32212 11.7166 0.578125 16.8099 0.578125C24.5722 0.578125 30.8667 6.87388 30.8667 14.6346C30.8667 17.1281 30.2202 19.4695 29.0814 21.4945V21.4945Z" fill="black"/>
<path fill-rule="evenodd" clip-rule="evenodd" d="M4.77002 7.37795C4.68347 7.52603 4.59741 7.67821 4.50989 7.83032C4.54626 7.75493 4.58655 7.67821 4.62708 7.60144C4.67273 7.52603 4.71851 7.44929 4.77002 7.37795V7.37795Z" fill="white"/>
<path fill-rule="evenodd" clip-rule="evenodd" d="M28.9886 21.6688C28.9642 21.7145 28.9332 21.7603 28.9023 21.8007C28.9642 21.7038 29.0194 21.6068 29.0759 21.5059C29.0503 21.5611 29.0194 21.6122 28.9886 21.6688V21.6688Z" fill="white"/>
<path fill-rule="evenodd" clip-rule="evenodd" d="M15.6703 7.78809C17.3673 7.78809 18.7429 9.59038 18.7429 11.8136C18.7429 14.0369 17.3673 15.8391 15.6703 15.8391C13.9733 15.8391 12.5977 14.0369 12.5977 11.8136C12.5977 9.59038 13.9733 7.78809 15.6703 7.78809V7.78809Z" fill="white"/>
<path fill-rule="evenodd" clip-rule="evenodd" d="M16.6819 8.92188C17.43 8.92188 18.0366 9.81696 18.0366 10.9211C18.0366 12.0253 17.43 12.9203 16.6819 12.9203C15.9337 12.9203 15.3271 12.0253 15.3271 10.9211C15.3271 9.81696 15.9337 8.92188 16.6819 8.92188V8.92188Z" fill="black"/>
<path fill-rule="evenodd" clip-rule="evenodd" d="M21.6283 7.75977C23.3253 7.75977 24.7009 9.56206 24.7009 11.7853C24.7009 14.0085 23.3253 15.8108 21.6283 15.8108C19.9313 15.8108 18.5557 14.0085 18.5557 11.7853C18.5557 9.56206 19.9313 7.75977 21.6283 7.75977V7.75977Z" fill="white"/>
<path fill-rule="evenodd" clip-rule="evenodd" d="M22.6408 8.88965C23.389 8.88965 23.9956 9.78474 23.9956 10.8889C23.9956 11.993 23.389 12.8881 22.6408 12.8881C21.8927 12.8881 21.2861 11.993 21.2861 10.8889C21.2861 9.78474 21.8927 8.88965 22.6408 8.88965V8.88965Z" fill="black"/>
<mask id="path-14-inside-3_49_4832" fill="white">
<path fill-rule="evenodd" clip-rule="evenodd" d="M31.6627 14.3541L29.5538 16.4642L20.2672 25.7496C20.0883 25.9298 19.954 26.1485 19.8758 26.3908L18.5958 30.3575C18.1235 31.8214 19.5142 33.2007 20.9743 32.7173L24.9062 31.415C25.1436 31.3367 25.3585 31.2037 25.535 31.0273L34.8254 21.7357L36.79 19.7722L36.9354 19.6268C38.3906 18.1704 38.3906 15.8105 36.9354 14.3541C35.479 12.8989 33.1191 12.8989 31.6627 14.3541V14.3541Z"/>
</mask>
<path fill-rule="evenodd" clip-rule="evenodd" d="M31.6627 14.3541L29.5538 16.4642L20.2672 25.7496C20.0883 25.9298 19.954 26.1485 19.8758 26.3908L18.5958 30.3575C18.1235 31.8214 19.5142 33.2007 20.9743 32.7173L24.9062 31.415C25.1436 31.3367 25.3585 31.2037 25.535 31.0273L34.8254 21.7357L36.79 19.7722L36.9354 19.6268C38.3906 18.1704 38.3906 15.8105 36.9354 14.3541C35.479 12.8989 33.1191 12.8989 31.6627 14.3541V14.3541Z" fill="white" stroke="black" stroke-width="2" stroke-linecap="round" stroke-linejoin="round" mask="url(#path-14-inside-3_49_4832)"/>
<path d="M22.7501 28.5742L33.5185 17.6973" stroke="black" stroke-linecap="round" stroke-linejoin="round"/>
<path fill-rule="evenodd" clip-rule="evenodd" d="M20.7503 26.5742L24.7503 30.5742Z" fill="white"/>
<path d="M20.7503 26.5742L24.7503 30.5742" stroke="black" stroke-linecap="round" stroke-linejoin="round"/>
<path d="M31.5919 15.7109L35.7496 19.5742" stroke="black" stroke-linecap="round" stroke-linejoin="round"/>
<path d="M19.0137 32.0771H11.5" stroke="black" stroke-linecap="round"/>
</svg>
