<?xml version="1.0" encoding="UTF-8"?><svg id="a" xmlns="http://www.w3.org/2000/svg" viewBox="0 0 45.92 45.92"><defs><style>.b{fill:#fff;}.c{fill:#fc6749;}.d{fill:#ff7f5f;}</style></defs><path class="d" d="M43.87,21.54c.05,.66-1.66,1.35-1.68,2.01-.02,.66,1.64,1.45,1.56,2.1-.08,.66-1.89,1-2.04,1.64-.15,.64,1.32,1.75,1.11,2.37-.21,.63-2.05,.61-2.32,1.21-.27,.6,.96,1.97,.63,2.54-.33,.57-2.13,.2-2.51,.73-.38,.54,.56,2.12,.12,2.61s-2.13-.22-2.6,.23c-.48,.45,.14,2.18-.39,2.59-.52,.4-2.04-.63-2.6-.28-.56,.35-.29,2.17-.88,2.46-.59,.29-1.88-1.02-2.49-.78-.61,.23-.71,2.07-1.35,2.24-.63,.17-1.64-1.37-2.29-1.26-.64,.11-1.1,1.89-1.76,1.93-.66,.05-1.35-1.66-2.01-1.68-.66-.02-1.45,1.64-2.1,1.56-.66-.08-1-1.89-1.64-2.04-.64-.15-1.75,1.32-2.37,1.11-.63-.21-.61-2.05-1.21-2.32-.6-.27-1.97,.96-2.54,.63-.57-.33-.2-2.13-.73-2.51-.54-.38-2.12,.56-2.61,.12-.5-.43,.22-2.13-.23-2.6-.45-.48-2.18,.14-2.59-.39-.4-.52,.63-2.04,.28-2.6-.35-.56-2.17-.29-2.46-.88-.29-.59,1.02-1.88,.78-2.49-.23-.61-2.07-.71-2.24-1.35-.17-.63,1.37-1.64,1.26-2.29-.11-.64-1.89-1.1-1.93-1.76s1.66-1.35,1.68-2.01c.02-.66-1.64-1.45-1.56-2.1,.08-.66,1.89-1,2.04-1.64,.15-.64-1.32-1.75-1.11-2.37,.21-.63,2.05-.61,2.32-1.21,.27-.6-.96-1.97-.63-2.54,.33-.57,2.13-.2,2.51-.73,.38-.54-.56-2.12-.12-2.61,.43-.5,2.13,.22,2.6-.23,.48-.45-.14-2.18,.39-2.59,.52-.4,2.04,.63,2.6,.28,.56-.35,.29-2.17,.88-2.46,.59-.29,1.88,1.02,2.49,.78,.61-.23,.71-2.07,1.35-2.24,.63-.17,1.64,1.37,2.29,1.26,.64-.11,1.1-1.89,1.76-1.93s1.35,1.66,2.01,1.68c.66,.02,1.45-1.64,2.1-1.56,.66,.08,1,1.89,1.64,2.04,.64,.15,1.75-1.32,2.37-1.11,.63,.21,.61,2.05,1.21,2.32,.6,.27,1.97-.96,2.54-.63,.57,.33,.2,2.13,.73,2.51,.54,.38,2.12-.56,2.61-.12,.5,.43-.22,2.13,.23,2.6,.45,.48,2.18-.14,2.59,.39,.4,.52-.63,2.04-.28,2.6,.35,.56,2.17,.29,2.46,.88,.29,.59-1.02,1.88-.78,2.49,.23,.61,2.07,.71,2.24,1.35,.17,.63-1.37,1.64-1.26,2.29,.11,.64,1.89,1.1,1.93,1.76Z"/><path class="c" d="M37.33,23.51c-.3,1.5-1.77,2.47-3.26,2.16-1.5-.3-2.47-1.77-2.16-3.27,.3-1.5,1.77-2.47,3.26-2.16s2.47,1.77,2.16,3.27Z"/><path class="c" d="M14.01,23.51c-.3,1.5-1.77,2.47-3.27,2.16-1.5-.3-2.47-1.77-2.16-3.26,.3-1.5,1.77-2.47,3.27-2.16,1.5,.3,2.47,1.77,2.16,3.26Z"/><g><g><ellipse class="b" cx="20.18" cy="16.28" rx="3.12" ry="4.25"/><ellipse cx="20.26" cy="16.28" rx="1.38" ry="1.9"/><ellipse class="b" cx="25.74" cy="16.28" rx="3.12" ry="4.25"/><ellipse cx="25.82" cy="16.28" rx="1.38" ry="1.9"/></g><circle cx="22.96" cy="19.1" r="1.5"/></g><path d="M18.11,26.03c.32-.61,.63-1.23,.95-1.84h-1.3c.41,.55,.85,1.04,1.39,1.46,.39,.3,.89,.29,1.18-.15,.17-.26,.33-.51,.5-.77l.22-.34,.11-.17c.07-.11,.07-.11,.02-.02l-.58,.08c.3,.04,.56,.5,.75,.71,.23,.26,.53,.44,.89,.42,.39-.03,.64-.27,.84-.58,.15-.23,.37-.77,.62-.88l-.58,.08c.11,.03,.34,.31,.44,.4l.57,.5c.35,.3,.94,.3,1.18-.15,.27-.49,.56-.96,.89-1.41l-1.03,.27c.62,.45,1.21,.94,1.78,1.46,.37,.34,.91,.26,1.18-.15,.47-.71,.94-1.42,1.41-2.14,.53-.81-.77-1.56-1.3-.76-.47,.71-.94,1.42-1.41,2.14,.39-.05,.79-.1,1.18-.15-.66-.61-1.36-1.17-2.09-1.69-.35-.25-.81-.03-1.03,.27-.33,.45-.63,.92-.89,1.41,.39-.05,.79-.1,1.18-.15-.52-.46-1.28-1.46-2.07-1.28-.36,.08-.58,.39-.78,.67-.13,.17-.25,.34-.37,.52l-.09,.15c-.23,.31-.04,.33,.58,.07-.03-.24-.53-.61-.7-.75-.33-.27-.7-.51-1.15-.4-.38,.09-.59,.42-.79,.72-.26,.39-.51,.79-.77,1.19,.39-.05,.79-.1,1.18-.15-.43-.34-.83-.72-1.16-1.16-.31-.42-1.01-.55-1.3,0-.32,.61-.63,1.23-.95,1.84-.44,.86,.85,1.62,1.3,.76h0Z"/><path class="d" d="M21.44,11.28s-3.41,3.65-5.68,3.65,1.92-3.7,1.92-3.7l3.75,.05Z"/><path class="d" d="M29.53,12.51s-1.23-1.38-3.5-1.38,3.21,3.9,3.21,3.9l.3-2.52Z"/></svg>